# xmcd CD database file
# Copyright (C) 1996 Ti Kan
#
# Track frame offsets:
#	170
#	11805
#	24595
#	40840
#	54955
#	67320
#	83732
#	96485
#	106257
#	121505
#	138557
#	154485
#	170660
#	184312
#	194947
#	203867
#
# Disc length: 2913 seconds
#
# Revision: 1
# Processed by: cddbd v1.4b41PL1 Copyright (c) Steve Scherf et al.
# Submitted via: EasyCD 2.21 - (C) 1996 Greg Leichner
#
DISCID=ec0b5f10
DTITLE=Lynn Anderson - Country Girl
DYEAR=1900
DGENRE=
TTITLE0=Listen to a Country Song
TTITLE1=Top of the World
TTITLE2=I Was Country When Country Wasn't Cool
TTITLE3=Two Doors Down
TTITLE4=Stand By Your Man
TTITLE5=When I Dream
TTITLE6=I Fall To Pieces
TTITLE7=Snowbird
TTITLE8=Desperado
TTITLE9=Blue Bayou
TTITLE10=You Needed Me
TTITLE11=The Devil Went Down to Georgia
TTITLE12=Talking in Your Sleep
TTITLE13=Heartbreak Hotel
TTITLE14=Rocky Top
TTITLE15=Gone at Last
EXTD=
EXTT0=
EXTT1=
EXTT2=
EXTT3=
EXTT4=
EXTT5=
EXTT6=
EXTT7=
EXTT8=
EXTT9=
EXTT10=
EXTT11=
EXTT12=
EXTT13=
EXTT14=
EXTT15=
PLAYORDER=
